<?xml version="1.0" encoding="utf-8"?>
<!-- Generator: Adobe Illustrator 26.0.3, SVG Export Plug-In . SVG Version: 6.00 Build 0)  -->
<svg version="1.1" id="Layer_1" xmlns="http://www.w3.org/2000/svg" xmlns:xlink="http://www.w3.org/1999/xlink" x="0px" y="0px"
	 viewBox="0 0 182.5 41.3" style="enable-background:new 0 0 182.5 41.3;" xml:space="preserve">
<style type="text/css">
	.st0{stroke:#000000;stroke-width:0.4625;stroke-miterlimit:10;}
	.st1{fill:#F7E921;stroke:#000000;stroke-width:0.4625;stroke-miterlimit:10;}
</style>
<g>
	<path class="st0" d="M41.8,17.7c0.4,0,0.7,0,1,0c1.5,0,2.5,0.6,2.8,2c0.3,1.5,0.2,3.1,0.3,4.6c0.1-0.2,0.3-0.6,0.5-0.9
		c1.4-2.5,2.9-4.9,5.4-6.6c0.8-0.5,1.8-1,2.7-1.3c2.1-0.7,2.9-0.1,3.2,2c0.1,0,0.1,0.1,0.2,0.1c2.8,0,3.8,0.9,3.8,3.7
		c0,1.2-0.1,2.3-0.4,3.5c-0.2,1.1-0.7,2.2-1.1,3.3c0.1,0.1,0.2,0.1,0.3,0.2c0.2-0.3,0.4-0.6,0.5-1c1.2-4.2,3.3-8,7-10.5
		c1.3-0.9,3-1.4,4.6-1.7c1.9-0.4,3.6,0.2,5.1,1.8c0.2-0.4,0.4-0.8,0.6-1.2c1.9-3.5,3.8-6.9,5.7-10.3c1-1.7,2.6-1.7,3.8-0.1
		c1.5,2.1,1.3,4.3,0.2,6.5c-2.6,5.1-5.2,10.1-7.8,15.2c-0.9,1.8-1.7,3.7-2.5,5.6c0.1,0.1,0.2,0.2,0.3,0.3c0.5-0.2,1-0.3,1.5-0.6
		c2.2-1.2,3.7-3.2,5.3-5.1c0.6-0.7,1.2-1.5,1.6-2.3c0.7-1.3,1.7-1.3,2.9-1c0,0.1,0.1,0.2,0,0.3c-2.7,4.6-5.8,8.9-10.7,11.4
		c-1.3,0.7-2.8,1-4.2,1.2c-2.2,0.3-3.2-0.7-3.3-2.9c0-0.3,0-0.7,0-1.2c-1.1,0.9-2,1.8-3,2.6c-1.6,1.3-3.3,1.7-5.2,0.8
		c-1.9-0.9-2.5-2.5-2.5-4.5c0-0.3,0-0.5,0-0.8c0-0.1-0.1-0.1-0.3-0.5c-0.6,0.4-1.3,0.6-1.9,1.1c-1.4,1.2-2.7,2.6-4.1,3.8
		c-1.6,1.2-3.4,1.6-5.4,1.5c-2.7-0.2-4.2-1.7-4.4-4.4c0-0.5,0-1,0-1.9c-0.8,0.4-1.4,0.6-1.8,1c-1.1,1-2,2.1-3.1,3
		c-1.9,1.7-4.1,2.5-6.7,2.3c-2.6-0.2-4.1-1.7-4.2-4.3c-0.2-3.3,0.7-6.4,2.2-9.3c0.2-0.4,0.4-0.8,0.7-1.2c0-0.1,0-0.1,0-0.3
		c-0.2,0-0.5,0-0.6,0.1c-2.1,3.2-4.2,6.4-4.1,10.4c0,0.8,0.2,1.7,0.5,2.4c0.3,0.6,1,0.9,1.5,1.4c0.3,0.3,0.9,0.7,0.8,0.8
		c-0.2,0.4-0.5,0.9-0.9,1c-0.3,0.2-0.9,0.1-1.2-0.1c-2.6-1-4.6-2.6-5.6-5.5c-0.4,0.3-0.8,0.7-1.3,0.9c-2,1.1-3.8,2.5-5.9,3.2
		c-4.7,1.7-11.2-1.8-12.5-6.6c-0.4-1.4-0.2-3.1,0.2-4.6c0.9-3.9,3-7.4,5.3-10.6c2.6-3.7,5.6-7.2,9.2-10c1-0.8,2.2-1.5,3.3-2.2
		c2.4-1.4,4.9-1.3,7.5-0.4c2,0.7,2.9,2.7,1.9,4.7c-0.5,1-1.2,1.8-1.8,2.7c-0.7,1.1-1.3,2.2-1.8,3.4c-0.4,0.8-1,1-1.6,0.4
		c-0.8-0.8-0.8-1.7-0.4-2.7c0.4-1,0.9-1.9,1.3-2.9c0.2-0.5,0.4-1.1,0.4-1.7c0-0.3-0.1-0.9-0.3-1c-0.2-0.1-0.8,0-1,0.2
		c-2.1,1.7-4.3,3.2-6,5.1c-3.8,4.1-6.9,8.8-8.2,14.4c-0.5,2-0.4,4,0.5,6c1.3,2.7,4,3.6,6.5,2c3.2-1.9,5.6-4.6,7.4-7.8
		c0.2-0.4,0.4-0.9,0.5-1.3c0.1-0.2,0.1-0.4,0.2-0.9c-1.4,0.6-2.6,1.1-3.7,1.6c-0.8,0.4-1.3,0.1-1.7-0.5c-0.4-0.6-0.3-1.2,0.3-1.6
		c0.2-0.1,0.4-0.3,0.6-0.4c3.1-1.3,6.3-2,9.7-1.5c0.7,0.1,1.3,0.4,2.1,0.6c0.5-0.6,1-1.3,1.7-1.8c1.4-1,2.9-2.2,4.5-2.8
		C40.6,14.7,41.5,15.4,41.8,17.7z M66.6,31.4c0.3,0.6,0.4,1.3,0.7,1.4c0.4,0.1,1-0.1,1.3-0.4c0.8-0.7,1.6-1.5,2.1-2.5
		c1.9-3.4,3.8-6.8,5.6-10.3c0.2-0.3,0.2-1,0-1.2c-0.3-0.3-1-0.5-1.3-0.4c-0.9,0.4-2,0.9-2.6,1.7c-1.5,2-3,4.1-4.1,6.3
		C67.5,27.8,67.2,29.7,66.6,31.4z M44.1,23c-0.4-0.7-0.6-1.7-1-1.8c-0.6-0.1-1.6,0.3-2,0.8c-0.8,1.2-1.4,2.5-1.8,3.8
		c-0.3,1.1,0.5,2.2,1.5,2.6c0.8,0.3,1.4,0.3,1.7-0.6C43,26.3,43.5,24.7,44.1,23z M59.9,23c-0.4-0.7-0.6-1.7-1-1.8
		c-0.6-0.1-1.4,0.2-1.9,0.6c-1.2,1-1.8,2.5-2,4c-0.2,1.2,0.6,2.3,1.7,2.6c0.7,0.2,1.2,0.1,1.5-0.6C58.8,26.3,59.3,24.7,59.9,23z
		 M52.3,26.1c-1,1.9-1.7,3.8-1.6,5.8c0,1.2,0.6,1.7,1.6,1.5c1.6-0.4,2.7-1.5,4-2.8C53.6,30,52.3,28.6,52.3,26.1z M40.4,30.9
		c-3.4-2-3.4-2-4-5.1c-0.9,2.2-1.8,4.1-1.6,6.3c0.1,1.1,0.9,1.6,1.9,1.1C38,32.7,39.1,31.8,40.4,30.9z"/>
	<path class="st0" d="M149.5,31.5c2.2-0.3,4.1-2.1,4.5-3.9c0.7-3.5,2.2-6.5,4.9-8.9c1.2-1.1,2.7-1.9,4.2-2.4
		c2.2-0.8,3.6-0.3,5.3,1.3c0.6-0.7,1.1-1.4,1.7-2c1.8-1.8,4-2.8,6.7-2.3c1.3,0.3,2.3,1,2.9,2.2c0.7,1.3,0.2,2.4-1.3,2.6
		c-0.2,0-0.4,0.1-0.6,0.1c-3,0.4-3.9,1.4-3.5,4.4c0.1,1.3,0.5,2.5,0.7,3.8c0.1,0.7,0.5,0.9,1.1,0.5c1.3-0.9,2.6-1.7,3.8-2.7
		c0.7-0.6,1.3-0.8,2.3-0.4c-0.3,0.4-0.5,0.7-0.7,1c-1.3,1.6-3.1,2.8-5,3.6c-0.8,0.4-1.2,0.8-1.1,1.8c0.1,5.1-5.8,7.3-9.1,5.5
		c-1-0.6-1.9-1.5-2.9-2.4c-1.1,0.3-2.5,0.9-3.9,1.2c-2.9,0.6-4.3-0.1-5.8-2.9c-0.4,0.3-0.8,0.6-1.2,0.9c-1.7,1.2-3.6,2.1-5.7,2.4
		c-2,0.2-3.1-0.7-2.9-2.7c0.1-1.7,0.7-3.3,1.1-5c0.1-0.5,0.3-0.9,0.3-1.5c-0.2,0.3-0.5,0.6-0.7,0.9c-1.5,2.2-3.1,4.4-4.6,6.7
		c-0.9,1.4-2.2,1.7-3.7,1.5c-1.1-0.1-1.7-1-1.7-2.1c0.2-1.9,0.5-3.7,0.9-5.5c0.2-1.1,0.7-2.2,0.9-3.4c-0.2,0.3-0.5,0.6-0.7,0.9
		c-2,2.8-3.9,5.7-5.9,8.5c-0.4,0.5-0.9,1.1-1.4,1.3c-2.2,1-3.5,0.3-4.2-2.3c-0.5,0.3-0.9,0.7-1.4,0.9c-1.7,0.7-3.4,1.5-5.1,1.8
		c-1.7,0.4-2.8-0.7-2.6-2.5c0.1-1.6,0.4-3.2,1-4.7c1.6-3.6,3.5-7.1,5.4-10.5c0.8-1.5,2-1.5,3.2-0.3c1.3,1.3,1.4,3.7,0.4,5.7
		c-1.2,2.2-2.4,4.4-3.5,6.6c-0.3,0.7-0.5,1.4-0.8,2.2c1.7-0.1,3.8-1.8,4.3-3.2c1.4-3.4,2.8-6.8,4.3-10.2c0.2-0.5,0.6-1,1-1.5
		c0.9-1.2,2.1-1.2,3.1-0.1c1.3,1.4,1.4,3.7,0.4,5.7c-1,2.1-2,4.2-3,6.2c-0.1,0.2-0.2,0.5-0.1,0.8c1.6-2.3,3.1-4.8,4.8-7
		c1.6-2.1,3.4-4,5.3-5.9c1-1,2.2-0.8,3.1,0.5c1.3,1.8,1,3.7,0,5.6c-1.1,2.2-2.2,4.5-3.3,6.7c0.1,0.1,0.2,0.1,0.3,0.2
		c0.7-1.1,1.4-2.2,2.1-3.2c2.2-2.9,4.4-5.9,6.7-8.7c1.7-2.1,3.8-1.4,4.5,1.2c0.4,1.4,0.2,2.7-0.5,4.1c-1.3,2.4-2.5,4.8-3.7,7.2
		C149.8,30.3,149.7,30.8,149.5,31.5z M167.3,24.1c-1.5,1.9-3.1,3.1-5.5,2.9c-1.9-0.2-1.9-0.2-2.4,1.7c-0.1,0.3-0.2,0.7-0.2,1
		c0.1,0.7,0.1,1.7,0.5,2c0.5,0.3,1.6,0.4,2.1,0c1.8-1.2,3.4-2.7,5-4.1C168.1,26.7,167.9,25.5,167.3,24.1z M161.5,24.2
		c2.2,0.8,5.2-2.6,4.8-5.4C164.7,19,162.1,21.9,161.5,24.2z M166.4,32.6c1.6,0.6,2.4,0.2,2.8-1.3C168.2,31.7,167.4,32.1,166.4,32.6z
		"/>
	<path class="st0" d="M171.6,4.6c-1.6,1.3-2.9,2.4-4.3,3.5c-0.2,0.2-0.6,0.1-0.9,0.1c-13.7-0.4-27.3,0.2-41,0.9
		c-4.9,0.3-3.5-0.5-5.9,3.6c-3.9,6.6-7.4,13.5-9.5,21c-0.4,1.5-0.5,3.1-0.7,4.6c0,0.1,0,0.2,0,0.3c-0.4,0.8-0.5,2-1.2,2.4
		c-0.4,0.3-1.5-0.5-2.3-0.8c-0.2-0.1-0.3-0.2-0.5-0.4c-3-2.6-3.5-3.9-2.2-7.7c2.1-6.4,5.6-12,9.3-17.6c1-1.5,2.1-2.9,3.3-4.7
		c-5.6,0.7-10.7,1.9-15.3,4.7c0.9,1.9,1.9,2.3,3.5,1.2c0.5-0.3,1-0.8,1.5-1.1c0.2-0.1,0.6-0.1,0.8,0c0.1,0,0.1,0.6,0,0.7
		c-1.2,1.5-2.4,3-3.8,4.4c-0.4,0.4-1.4,0.4-2.1,0.3c-2.6-0.8-5-2.2-7.1-4c-0.9-0.7-1-1.6-0.1-2.3c1.6-1.1,3.1-2.3,4.9-3.1
		c8.1-3.6,16.7-5.2,25.6-5.7c13.4-0.8,26.8-1.2,40.3-1c2.2,0,4.4,0.2,6.7,0.4C170.8,4.4,171.1,4.5,171.6,4.6z"/>
	<path class="st0" d="M125.1,14.7c-0.2-0.1-0.7-0.2-1-0.5c-0.1-0.1,0.2-0.7,0.5-1c0.6-0.9,1.2-1.7,1.8-2.6c0.6-0.8,1.5-1,2.5-0.3
		c0.9,0.6,1.1,1.5,0.5,2.3C128.4,13.9,127,14.5,125.1,14.7z"/>
	<g>
		<path class="st1" d="M40.2,16.9c0.4,0,0.7,0,1,0c1.5,0,2.5,0.6,2.8,2c0.3,1.5,0.2,3.1,0.3,4.6c0.1-0.2,0.3-0.6,0.5-0.9
			c1.4-2.5,2.9-4.9,5.4-6.6c0.8-0.5,1.8-1,2.7-1.3c2.1-0.7,2.9-0.1,3.2,2c0.1,0,0.1,0.1,0.2,0.1c2.8,0,3.8,0.9,3.8,3.7
			c0,1.2-0.1,2.3-0.4,3.5c-0.2,1.1-0.7,2.2-1.1,3.3c0.1,0.1,0.2,0.1,0.3,0.2c0.2-0.3,0.4-0.6,0.5-1c1.2-4.2,3.3-8,7-10.5
			c1.3-0.9,3-1.4,4.6-1.7c1.9-0.4,3.6,0.2,5.1,1.8c0.2-0.4,0.4-0.8,0.6-1.2c1.9-3.5,3.8-6.9,5.7-10.3c1-1.7,2.6-1.7,3.8-0.1
			c1.5,2.1,1.3,4.3,0.2,6.5c-2.6,5.1-5.2,10.1-7.8,15.2c-0.9,1.8-1.7,3.7-2.5,5.6c0.1,0.1,0.2,0.2,0.3,0.3c0.5-0.2,1-0.3,1.5-0.6
			c2.2-1.2,3.7-3.2,5.3-5.1c0.6-0.7,1.2-1.5,1.6-2.3c0.7-1.3,1.7-1.3,2.9-1c0,0.1,0.1,0.2,0,0.3C84.9,28,81.8,32.3,77,34.8
			c-1.3,0.7-2.8,1-4.2,1.2c-2.2,0.3-3.2-0.7-3.3-2.9c0-0.3,0-0.7,0-1.2c-1.1,0.9-2,1.8-3,2.6c-1.6,1.3-3.3,1.7-5.2,0.8
			c-1.9-0.9-2.5-2.5-2.5-4.5c0-0.3,0-0.5,0-0.8c0-0.1-0.1-0.1-0.3-0.5c-0.6,0.4-1.3,0.6-1.9,1.1c-1.4,1.2-2.7,2.6-4.1,3.8
			c-1.6,1.2-3.4,1.6-5.4,1.5c-2.7-0.2-4.2-1.7-4.4-4.4c0-0.5,0-1,0-1.9c-0.8,0.4-1.4,0.6-1.8,1c-1.1,1-2,2.1-3.1,3
			c-1.9,1.7-4.1,2.5-6.7,2.3c-2.6-0.2-4.1-1.7-4.2-4.3c-0.2-3.3,0.7-6.4,2.2-9.3c0.2-0.4,0.4-0.8,0.7-1.2c0-0.1,0-0.1,0-0.3
			c-0.2,0-0.5,0-0.6,0.1c-2.1,3.2-4.2,6.4-4.1,10.4c0,0.8,0.2,1.7,0.5,2.4c0.3,0.6,1,0.9,1.5,1.4c0.3,0.3,0.9,0.7,0.8,0.8
			c-0.2,0.4-0.5,0.9-0.9,1c-0.3,0.2-0.9,0.1-1.2-0.1c-2.6-1-4.6-2.6-5.6-5.5c-0.4,0.3-0.8,0.7-1.3,0.9c-2,1.1-3.8,2.5-5.9,3.2
			C8.2,37,1.7,33.5,0.4,28.7c-0.4-1.4-0.2-3.1,0.2-4.6c0.9-3.9,3-7.4,5.3-10.6c2.6-3.7,5.6-7.2,9.2-10c1-0.8,2.2-1.5,3.3-2.2
			c2.4-1.4,4.9-1.3,7.5-0.4c2,0.7,2.9,2.7,1.9,4.7c-0.5,1-1.2,1.8-1.8,2.7c-0.7,1.1-1.3,2.2-1.8,3.4c-0.4,0.8-1,1-1.6,0.4
			c-0.8-0.8-0.8-1.7-0.4-2.7c0.4-1,0.9-1.9,1.3-2.9c0.2-0.5,0.4-1.1,0.4-1.7c0-0.3-0.1-0.9-0.3-1c-0.2-0.1-0.8,0-1,0.2
			c-2.1,1.7-4.3,3.2-6,5.1c-3.8,4.1-6.9,8.8-8.2,14.4c-0.5,2-0.4,4,0.5,6c1.3,2.7,4,3.6,6.5,2c3.2-1.9,5.6-4.6,7.4-7.8
			c0.2-0.4,0.4-0.9,0.5-1.3c0.1-0.2,0.1-0.4,0.2-0.9c-1.4,0.6-2.6,1.1-3.7,1.6C19,23.3,18.5,23,18,22.3c-0.4-0.6-0.3-1.2,0.3-1.6
			c0.2-0.1,0.4-0.3,0.6-0.4c3.1-1.3,6.3-2,9.7-1.5c0.7,0.1,1.3,0.4,2.1,0.6c0.5-0.6,1-1.3,1.7-1.8c1.4-1,2.9-2.2,4.5-2.8
			C39,13.8,39.9,14.5,40.2,16.9z M65,30.6c0.3,0.6,0.4,1.3,0.7,1.4c0.4,0.1,1-0.1,1.3-0.4c0.8-0.7,1.6-1.5,2.1-2.5
			c1.9-3.4,3.8-6.8,5.6-10.3c0.2-0.3,0.2-1,0-1.2c-0.3-0.3-1-0.5-1.3-0.4c-0.9,0.4-2,0.9-2.6,1.7c-1.5,2-3,4.1-4.1,6.3
			C65.9,27,65.5,28.9,65,30.6z M42.4,22.2c-0.4-0.7-0.6-1.7-1-1.8c-0.6-0.1-1.6,0.3-2,0.8c-0.8,1.2-1.4,2.5-1.8,3.8
			c-0.3,1.1,0.5,2.2,1.5,2.6c0.8,0.3,1.4,0.3,1.7-0.6C41.3,25.4,41.9,23.9,42.4,22.2z M58.2,22.1c-0.4-0.7-0.6-1.7-1-1.8
			c-0.6-0.1-1.4,0.2-1.9,0.6c-1.2,1-1.8,2.5-2,4c-0.2,1.2,0.6,2.3,1.7,2.6c0.7,0.2,1.2,0.1,1.5-0.6C57.2,25.4,57.7,23.8,58.2,22.1z
			 M50.6,25.2c-1,1.9-1.7,3.8-1.6,5.8c0,1.2,0.6,1.7,1.6,1.5c1.6-0.4,2.7-1.5,4-2.8C52,29.2,50.6,27.8,50.6,25.2z M38.7,30.1
			c-3.4-2-3.4-2-4-5.1c-0.9,2.2-1.8,4.1-1.6,6.3c0.1,1.1,0.9,1.6,1.9,1.1C36.3,31.8,37.5,30.9,38.7,30.1z"/>
	</g>
	<path class="st1" d="M147.8,30.7c2.2-0.3,4.1-2.1,4.5-3.9c0.7-3.5,2.2-6.5,4.9-8.9c1.2-1.1,2.7-1.9,4.2-2.4
		c2.2-0.8,3.6-0.3,5.3,1.3c0.6-0.7,1.1-1.4,1.7-2c1.8-1.8,4-2.8,6.7-2.3c1.3,0.3,2.3,1,2.9,2.2c0.7,1.3,0.2,2.4-1.3,2.6
		c-0.2,0-0.4,0.1-0.6,0.1c-3,0.4-3.9,1.4-3.5,4.4c0.1,1.3,0.5,2.5,0.7,3.8c0.1,0.7,0.5,0.9,1.1,0.5c1.3-0.9,2.6-1.7,3.8-2.7
		c0.7-0.6,1.3-0.8,2.3-0.4c-0.3,0.4-0.5,0.7-0.7,1c-1.3,1.6-3.1,2.8-5,3.6c-0.8,0.4-1.2,0.8-1.1,1.8c0.1,5.1-5.8,7.3-9.1,5.5
		c-1-0.6-1.9-1.5-2.9-2.4c-1.1,0.3-2.5,0.9-3.9,1.2c-2.9,0.6-4.3-0.1-5.8-2.9c-0.4,0.3-0.8,0.6-1.2,0.9c-1.7,1.2-3.6,2.1-5.7,2.4
		c-2,0.2-3.1-0.7-2.9-2.7c0.1-1.7,0.7-3.3,1.1-5c0.1-0.5,0.3-0.9,0.3-1.5c-0.2,0.3-0.5,0.6-0.7,0.9c-1.5,2.2-3.1,4.4-4.6,6.7
		c-0.9,1.4-2.2,1.7-3.7,1.5c-1.1-0.1-1.7-1-1.7-2.1c0.2-1.9,0.5-3.7,0.9-5.5c0.2-1.1,0.7-2.2,0.9-3.4c-0.2,0.3-0.5,0.6-0.7,0.9
		c-2,2.8-3.9,5.7-5.9,8.5c-0.4,0.5-0.9,1.1-1.4,1.3c-2.2,1-3.5,0.3-4.2-2.3c-0.5,0.3-0.9,0.7-1.4,0.9c-1.7,0.7-3.4,1.5-5.1,1.8
		c-1.7,0.4-2.8-0.7-2.6-2.5c0.1-1.6,0.4-3.2,1-4.7c1.6-3.6,3.5-7.1,5.4-10.5c0.8-1.5,2-1.5,3.2-0.3c1.3,1.3,1.4,3.7,0.4,5.7
		c-1.2,2.2-2.4,4.4-3.5,6.6c-0.3,0.7-0.5,1.4-0.8,2.2c1.7-0.1,3.8-1.8,4.3-3.2c1.4-3.4,2.8-6.8,4.3-10.2c0.2-0.5,0.6-1,1-1.5
		c0.9-1.2,2.1-1.2,3.1-0.1c1.3,1.4,1.4,3.7,0.4,5.7c-1,2.1-2,4.2-3,6.2c-0.1,0.2-0.2,0.5-0.1,0.8c1.6-2.3,3.1-4.8,4.8-7
		c1.6-2.1,3.4-4,5.3-5.9c1-1,2.2-0.8,3.1,0.5c1.3,1.8,1,3.7,0,5.6c-1.1,2.2-2.2,4.5-3.3,6.7c0.1,0.1,0.2,0.1,0.3,0.2
		c0.7-1.1,1.4-2.2,2.1-3.2c2.2-2.9,4.4-5.9,6.7-8.7c1.7-2.1,3.8-1.4,4.5,1.2c0.4,1.4,0.2,2.7-0.5,4.1c-1.3,2.4-2.5,4.8-3.7,7.2
		C148.2,29.4,148,30,147.8,30.7z M165.7,23.3c-1.5,1.9-3.1,3.1-5.5,2.9c-1.9-0.2-1.9-0.2-2.4,1.7c-0.1,0.3-0.2,0.7-0.2,1
		c0.1,0.7,0.1,1.7,0.5,2c0.5,0.3,1.6,0.4,2.1,0c1.8-1.2,3.4-2.7,5-4.1C166.5,25.8,166.3,24.7,165.7,23.3z M159.8,23.4
		c2.2,0.8,5.2-2.6,4.8-5.4C163.1,18.1,160.5,21.1,159.8,23.4z M164.7,31.7c1.6,0.6,2.4,0.2,2.8-1.3
		C166.6,30.8,165.8,31.2,164.7,31.7z"/>
	<path class="st1" d="M169.9,3.7c-1.6,1.3-2.9,2.4-4.3,3.5c-0.2,0.2-0.6,0.1-0.9,0.1c-13.7-0.4-27.3,0.2-41,0.9
		c-4.9,0.3-3.5-0.5-5.9,3.6c-3.9,6.6-7.4,13.5-9.5,21c-0.4,1.5-0.5,3.1-0.7,4.6c0,0.1,0,0.2,0,0.3c-0.4,0.8-0.5,2-1.2,2.4
		c-0.4,0.3-1.5-0.5-2.3-0.8c-0.2-0.1-0.3-0.2-0.5-0.4c-3-2.6-3.5-3.9-2.2-7.7c2.1-6.4,5.6-12,9.3-17.6c1-1.5,2.1-2.9,3.3-4.7
		c-5.6,0.7-10.7,1.9-15.3,4.7c0.9,1.9,1.9,2.3,3.5,1.2c0.5-0.3,1-0.8,1.5-1.1c0.2-0.1,0.6-0.1,0.8,0c0.1,0,0.1,0.6,0,0.7
		c-1.2,1.5-2.4,3-3.8,4.4c-0.4,0.4-1.4,0.4-2.1,0.3c-2.6-0.8-5-2.2-7.1-4c-0.9-0.7-1-1.6-0.1-2.3c1.6-1.1,3.1-2.3,4.9-3.1
		c8.1-3.6,16.7-5.2,25.6-5.7c13.4-0.8,26.8-1.2,40.3-1c2.2,0,4.4,0.2,6.7,0.4C169.2,3.6,169.4,3.6,169.9,3.7z"/>
	<path class="st1" d="M123.4,13.8c-0.2-0.1-0.7-0.2-1-0.5c-0.1-0.1,0.2-0.7,0.5-1c0.6-0.9,1.2-1.7,1.8-2.6c0.6-0.8,1.5-1,2.5-0.3
		c0.9,0.6,1.1,1.5,0.5,2.3C126.7,13,125.3,13.7,123.4,13.8z"/>
</g>
</svg>
